Coordinates
version=1
nRows=30
nColumns=33
inDegrees=yes

Units are S.I. units (second, meters, Newtons, ...)
Angles are in degrees.

endheader
time	ground_thorax_rot_x	ground_thorax_rot_y	ground_thorax_rot_z	ground_thorax_tx	ground_thorax_ty	ground_thorax_tz	clav_prot_r	clav_elev_r	scapula_abduction_r	scapula_elevation_r	scapula_upward_rot_r	scapula_winging_r	shoulder_elv_r	plane_of_elev_r	axial_rot_r	elbow_flexion_r	pro_sup_r	wrist_flex_r	wrist_dev_r	clav_prot_l	clav_elev_l	scapula_abduction_l	scapula_elevation_l	scapula_upward_rot_l	scapula_winging_l	shoulder_elv_l	plane_of_elev_l	axial_rot_l	elbow_flexion_l	pro_sup_l	wrist_flex_l	wrist_dev_l	
5.0500	-33.023388	-23.092582	29.124507	-98.150393	855.396262	-50.296891	26.696731	-45.000000	39.336914	-45.000000	-45.000000	1692.092754	1156.551170	21.068958	-146.153047	2518.117787	151.052096	14.173819	15.376634	-1.912928	32.805838	-30.804027	-45.000000	-45.000000	3687.971128	-2608.436120	133.026496	-106.446170	1789.522736	41.145760	13.439660	-21.772926	
5.0600	-32.999564	-23.108807	29.211805	-98.014613	854.907988	-50.345953	26.400720	-45.000000	39.225844	-45.000000	-45.000000	1692.134459	1156.565773	21.084877	-146.204714	2518.149879	152.174566	14.470204	15.158830	-1.755562	32.805885	-30.843905	-45.000000	-45.000000	3687.886677	-2608.490489	133.060389	-106.644973	1789.547609	41.544664	13.277191	-21.974895	
5.0700	-32.988184	-23.098460	29.254090	-97.851080	854.434116	-50.399372	26.037897	-45.000000	39.112959	-45.000000	-45.000000	1692.191237	1156.598568	21.085230	-146.204920	2518.124110	153.255668	14.744521	14.906194	-1.533006	32.789768	-30.917688	-45.000000	-45.000000	3687.796445	-2608.561377	133.131691	-106.827020	1789.563893	41.916835	13.116271	-22.216388	
5.0800	-32.967172	-23.143646	29.333491	-97.632073	853.986124	-50.461985	25.882875	-45.000000	39.050217	-45.000000	-45.000000	1692.215858	1156.603862	21.104140	-146.320810	2518.157916	154.172357	14.974633	14.747814	-1.433395	32.782471	-30.937346	-45.000000	-45.000000	3687.740451	-2608.595665	133.154626	-106.919643	1789.604973	42.251450	12.981997	-22.392320	
5.0900	-32.943107	-23.216482	29.420013	-97.347780	853.571629	-50.534703	25.818936	-45.000000	39.023108	-45.000000	-45.000000	1692.229622	1156.594219	21.127820	-146.487997	2518.206789	154.946359	15.176382	14.645111	-1.390533	32.781964	-30.941776	-45.000000	-45.000000	3687.707759	-2608.608884	133.154534	-106.942376	1789.652984	42.546910	12.871151	-22.525470	
5.1000	-32.915515	-23.312411	29.507834	-96.984297	853.198825	-50.619054	25.833990	-45.000000	39.031601	-45.000000	-45.000000	1692.237292	1156.572477	21.152367	-146.695033	2518.250642	155.577142	15.325866	14.570371	-1.380073	32.774218	-30.936954	-45.000000	-45.000000	3687.681038	-2608.605542	133.148229	-106.891403	1789.703426	42.793350	12.780572	-22.647561	
5.1100	-32.881121	-23.429241	29.598511	-96.532564	852.872888	-50.715463	25.880242	-45.000000	39.065333	-45.000000	-45.000000	1692.247343	1156.542949	21.180302	-146.922356	2518.296054	156.075487	15.459102	14.532105	-1.400085	32.774195	-30.927918	-45.000000	-45.000000	3687.667168	-2608.583803	133.122188	-106.776193	1789.751985	42.998528	12.712644	-22.732277	
5.1200	-32.841189	-23.553728	29.682849	-95.986117	852.595463	-50.823785	25.928809	-45.000000	39.113765	-45.000000	-45.000000	1692.265145	1156.512738	21.209431	-147.144568	2518.312708	156.473514	15.547258	14.483029	-1.409958	32.760297	-30.922223	-45.000000	-45.000000	3687.638337	-2608.547416	133.100620	-106.603732	1789.792518	43.158391	12.658135	-22.827481	
5.1300	-32.798339	-23.687075	29.766586	-95.339239	852.364510	-50.943783	25.981672	-45.000000	39.163968	-45.000000	-45.000000	1692.289948	1156.481074	21.247978	-147.373278	2518.328179	156.776953	15.628146	14.454803	-1.435091	32.752306	-30.927950	-45.000000	-45.000000	3687.618722	-2608.499940	133.060262	-106.371070	1789.832660	43.284135	12.618507	-22.895794	
5.1400	-32.755234	-23.822959	29.845329	-94.586840	852.174350	-51.075140	26.041803	-45.000000	39.206330	-45.000000	-45.000000	1692.322547	1156.451616	21.296049	-147.604990	2518.329704	157.002347	15.678300	14.422898	-1.452300	32.735300	-30.945445	-45.000000	-45.000000	3687.594246	-2608.446369	133.015851	-106.083718	1789.874034	43.373825	12.587463	-22.971774	
5.1500	-32.716098	-23.958831	29.919188	-93.724481	852.016363	-51.217446	26.096896	-45.000000	39.232683	-45.000000	-45.000000	1692.368479	1156.423555	21.353119	-147.845169	2518.336028	157.152184	15.737592	14.413872	-1.468454	32.729857	-30.982787	-45.000000	-45.000000	3687.585882	-2608.387299	132.947836	-105.750425	1789.919662	43.439304	12.567175	-23.020544	
5.1600	-32.679287	-24.095003	29.992147	-92.748261	851.879785	-51.370145	26.146227	-45.000000	39.246550	-45.000000	-45.000000	1692.430867	1156.394123	21.410899	-148.097373	2518.332083	157.238563	15.779041	14.401338	-1.456214	32.722907	-31.034232	-45.000000	-45.000000	3687.573686	-2608.318727	132.871206	-105.385847	1789.962838	43.479428	12.554487	-23.069788	
5.1700	-32.644900	-24.233945	30.067548	-91.654976	851.752597	-51.532442	26.180879	-45.000000	39.252559	-45.000000	-45.000000	1692.512144	1156.362468	21.463366	-148.363687	2518.325817	157.262582	15.824931	14.399707	-1.421420	32.726081	-31.109514	-45.000000	-45.000000	3687.570261	-2608.248790	132.784244	-104.995394	1790.003157	43.500077	12.550817	-23.102327	
5.1800	-32.601964	-24.388605	30.160655	-90.442113	851.622283	-51.703260	26.205033	-45.000000	39.260916	-45.000000	-45.000000	1692.609715	1156.328346	21.507603	-148.645949	2518.312402	157.228221	15.856393	14.397198	-1.361618	32.730666	-31.187803	-45.000000	-45.000000	3687.559687	-2608.172636	132.697465	-104.589786	1790.036747	43.500190	12.557512	-23.130441	
5.1900	-32.548867	-24.562587	30.276192	-89.107855	851.476750	-51.881234	26.210609	-45.000000	39.275316	-45.000000	-45.000000	1692.725635	1156.293708	21.540380	-148.948389	2518.295246	157.137561	15.881432	14.402659	-1.283509	32.742232	-31.270698	-45.000000	-45.000000	3687.545010	-2608.091930	132.614004	-104.168167	1790.063178	43.483768	12.576856	-23.142306	
5.2000	-32.480434	-24.762229	30.421495	-87.651768	851.305167	-52.064710	26.209546	-45.000000	39.300101	-45.000000	-45.000000	1692.851547	1156.257495	21.566342	-149.268425	2518.268815	156.998538	15.885871	14.408914	-1.195427	32.752314	-31.346294	-45.000000	-45.000000	3687.518001	-2608.001773	132.538450	-103.730496	1790.081829	43.449744	12.608762	-23.145269	
5.2100	-32.400583	-24.982120	30.592880	-86.074055	851.098480	-52.251969	26.206184	-45.000000	39.329616	-45.000000	-45.000000	1692.982289	1156.219818	21.592557	-149.603237	2518.236583	156.819927	15.875052	14.423467	-1.111444	32.761900	-31.424904	-45.000000	-45.000000	3687.486114	-2607.909927	132.469710	-103.271788	1790.096836	43.401554	12.652791	-23.136802	
5.2200	-32.305562	-25.225182	30.795558	-84.375900	850.849845	-52.441321	26.204080	-45.000000	39.366135	-45.000000	-45.000000	1693.113993	1156.178597	21.619964	-149.953148	2518.200934	156.610442	15.851563	14.448034	-1.039044	32.769176	-31.497909	-45.000000	-45.000000	3687.448257	-2607.816554	132.404944	-102.793654	1790.112002	43.342423	12.708604	-23.115893	
5.2300	-32.197844	-25.487124	31.025287	-82.558740	850.554728	-52.631265	26.207161	-45.000000	39.407944	-45.000000	-45.000000	1693.245806	1156.133322	21.652790	-150.315661	2518.163284	156.380569	15.817451	14.480879	-0.978524	32.773708	-31.565101	-45.000000	-45.000000	3687.405750	-2607.720763	132.339666	-102.296150	1790.126771	43.276490	12.774430	-23.080345	
5.2400	-32.078540	-25.766615	31.279329	-80.624733	850.210836	-52.820404	26.211431	-45.000000	39.453502	-45.000000	-45.000000	1693.380685	1156.084950	21.690947	-150.695367	2518.123823	156.140330	15.774936	14.520839	-0.925256	32.775200	-31.627578	-45.000000	-45.000000	3687.360542	-2607.623097	132.273119	-101.780355	1790.142923	43.206382	12.849609	-23.029198	
5.2500	-31.947815	-26.062887	31.556707	-78.575937	849.817744	-53.007449	26.216005	-45.000000	39.503176	-45.000000	-45.000000	1693.519611	1156.033477	21.735556	-151.093820	2518.084325	155.900991	15.725245	14.567425	-0.880032	32.773556	-31.686119	-45.000000	-45.000000	3687.313096	-2607.525679	132.206898	-101.245426	1790.158656	43.135826	12.933753	-22.961282	
5.2600	-31.805163	-26.374032	31.857330	-76.414287	849.376338	-53.191041	26.215592	-45.000000	39.555063	-45.000000	-45.000000	1693.666520	1155.979580	21.782806	-151.514518	2518.045320	155.673282	15.670465	14.619219	-0.836192	32.769983	-31.741278	-45.000000	-45.000000	3687.263093	-2607.428664	132.142172	-100.691788	1790.174194	43.067834	13.026266	-22.875215	
5.2700	-31.650575	-26.697375	32.180184	-74.141727	848.888396	-53.369652	26.211462	-45.000000	39.607793	-45.000000	-45.000000	1693.821685	1155.922680	21.833142	-151.955815	2518.008977	155.468834	15.612261	14.674472	-0.792507	32.765090	-31.792870	-45.000000	-45.000000	3687.209383	-2607.330999	132.078416	-100.118589	1790.186394	43.005990	13.126131	-22.769630	
5.2800	-31.483305	-27.031529	32.524657	-71.760170	848.355938	-53.541451	26.208989	-45.000000	39.661578	-45.000000	-45.000000	1693.983794	1155.861949	21.885458	-152.412579	2517.974954	155.297829	15.553453	14.730902	-0.747853	32.758974	-31.839901	-45.000000	-45.000000	3687.152004	-2607.230341	132.013677	-99.527628	1790.194678	42.953011	13.231481	-22.643696	
5.2900	-31.302106	-27.374101	32.890321	-69.272579	847.781291	-53.704297	26.212034	-45.000000	39.716143	-45.000000	-45.000000	1694.149941	1155.796941	21.941121	-152.879539	2517.945320	155.168707	15.494453	14.787206	-0.705000	32.750868	-31.882337	-45.000000	-45.000000	3687.090374	-2607.128460	131.946480	-98.920155	1790.198690	42.912715	13.340917	-22.498030	
5.3000	-31.106869	-27.723505	33.276992	-66.683507	847.167013	-53.855712	26.221574	-45.000000	39.770241	-45.000000	-45.000000	1694.319259	1155.726331	21.998637	-153.353325	2517.918749	155.086090	15.436066	14.841925	-0.662392	32.740905	-31.920834	-45.000000	-45.000000	3687.025008	-2607.024689	131.877215	-98.299609	1790.199508	42.890828	13.452326	-22.333485	
5.3100	-30.895664	-28.077019	33.684437	-64.001296	846.516458	-53.992915	26.237714	-45.000000	39.824214	-45.000000	-45.000000	1694.489391	1155.649901	22.058634	-153.831334	2517.897232	155.052133	15.375538	14.895625	-0.623868	32.727944	-31.954167	-45.000000	-45.000000	3686.954590	-2606.920887	131.806244	-97.668319	1790.199555	42.894728	13.564431	-22.153354	
5.3200	-30.668932	-28.433322	34.110360	-61.236246	845.832953	-54.113036	26.262873	-45.000000	39.877768	-45.000000	-45.000000	1694.660242	1155.566865	22.119995	-154.308723	2517.876902	155.065310	15.313564	14.946634	-0.586513	32.712667	-31.982219	-45.000000	-45.000000	3686.880857	-2606.817327	131.733728	-97.033341	1790.199166	42.933754	13.674357	-21.959950	
5.3300	-30.425263	-28.786872	34.552972	-58.399970	845.119304	-54.213414	26.284899	-45.000000	39.929709	-45.000000	-45.000000	1694.834868	1155.479332	22.178814	-154.788886	2517.861456	155.122026	15.244190	14.996905	-0.547870	32.695117	-32.007344	-45.000000	-45.000000	3686.800892	-2606.720488	131.662521	-96.399056	1790.202259	43.015628	13.782350	-21.759206	
5.3400	-30.165703	-29.134963	35.009978	-55.501412	844.376098	-54.291885	26.307609	-45.000000	39.978985	-45.000000	-45.000000	1695.010310	1155.385338	22.237898	-155.265276	2517.849809	155.219548	15.165491	15.046581	-0.512093	32.674375	-32.026599	-45.000000	-45.000000	3686.714034	-2606.628488	131.590715	-95.772253	1790.209534	43.147002	13.885565	-21.554645	
